<?xml version="1.0" encoding="UTF-8" standalone="no"?>
<!-- Created with Inkscape (http://www.inkscape.org/) -->
<svg xmlns:svg="http://www.w3.org/2000/svg" xmlns="http://www.w3.org/2000/svg" version="1.1" width="450" height="420" id="Mozilla" xml:space="preserve"><defs id="Defs"/><g transform="matrix(1.25, 0, 0, -1.25, 0, 420)" id="Logo"><g transform="matrix(4.3904, 0, 0, 4.3904, -2557.09, -2266.29)" id="Dino"><path d="m 631.48054,571.53983 c 0.012,0.002 0.023,0.006 0.034,0.01 0.007,-0.264 0.003,-0.415 -0.034,-0.01 m 0.016,0.537 -0.004,-10e-4 c -0.009,0.252 -0.004,0.179 0.004,10e-4 m 10.462,-3.856 -0.144,0.588 c 0.097,-0.179 0.134,-0.378 0.144,-0.588 m -6.178,15.921 c 0.598,1.846 -0.617,3.379 -1.858,4.547 -1.865,1.359 -4.459,0.759 -6.459,0.216 -2.271,0.48 -4.372,1.292 -6.582,1.94 -4.922,0.538 -9.802,-2.938 -9.802,-2.938 -3.512,-2.23 -9.025,-6.856 -11.664,-9.557 0.646,-0.092 1.333,0.394 2.061,0.482 l 5.047,1.31 c -2.105,-1.738 -6.53,-4.792 -7.821,-7.216 1.576,0.54 4.889,2.369 6.53,2.508 -1.442,-1.271 -4.447,-3.682 -5.396,-5.221 0.113,-0.055 0.034,-0.189 0.05,-0.284 1.237,0.681 4.244,2.462 5.603,2.575 -1.409,-1.461 -4,-4.273 -4.577,-6.166 1.221,0.798 4.286,2.412 5.625,2.899 -0.309,-0.746 -0.989,-1.297 -1.432,-2.042 -0.614,-1.032 -2.055,-2.199 -2.119,-3.429 1.073,0.995 2.399,1.87 3.73,2.567 -0.601,-1.239 -1.695,-2.26 -2.002,-3.738 0.876,0.846 2.526,1.278 3.648,1.664 l -0.135,-0.131 c -0.097,-0.079 -1.366,-0.975 -2.231,-1.979 0.764,0.044 0.195,0.139 1.171,-0.083 l 0.53,-0.029 c -0.507,-0.264 -1.104,-0.58 -1.727,-0.916 l 0,-10e-4 c 0.298,0.162 0.592,0.318 0.871,0.467 1.896,-2.362 4.227,-4.245 6.941,-5.568 3.517,-1.716 7.349,-2.307 11.198,-1.916 -0.006,0.016 -0.011,0.033 -0.017,0.049 1.453,2.699 0.689,7.324 4.41,9.179 2.504,1.276 2.789,1.98 5.667,1.431 1.554,-0.296 4.95,-1.469 6.582,-1.119 1.482,0.821 2.227,1.197 3.507,2.152 1.601,-0.29 2.12,-0.128 2.709,0.72 -0.534,-0.739 1.037,2.896 1.701,4.266 l 0.053,0.742 c -0.623,1.867 -0.446,5.055 -0.764,5.515 -2.076,2.849 -9.646,3.351 -13.048,7.104" id="black" style="fill:#100f0d;fill-opacity:1;fill-rule:nonzero;stroke:none"/><path d="m 610.48514,562.63213 3.122,0.149 c 0.402,0.143 0.277,0.09 0.277,0.09 -0.698,-1.335 -3.986,-2.366 -5.315,-3.184 0.091,-0.089 0.182,-0.177 0.274,-0.263 1.176,0.23 3.495,0.874 4.5,1.033 l -3.388,-2.003 c 1.173,-0.948 2.45,-1.764 3.827,-2.435 2.832,-1.382 5.867,-2.033 8.951,-2.031 -0.052,0.49 -0.071,0.986 -0.035,1.493 0.804,1.437 1.995,3.872 1.824,5.258 l 0.849,1.239 c -1.123,-0.263 -2.257,-0.698 -3.13,-1.592 -0.257,0.534 0.156,1.167 0.364,1.667 0.587,1.013 1.753,1.542 2.677,2.114 l -1.926,0.849 c -0.962,1.638 -2.803,2.996 -2.838,4.911 l 0.455,-0.155 c 1.748,-1.964 4.241,-3.565 6.748,-3.697 -1.706,0.155 7.139,1.104 6.623,1.838 0.931,-1.325 3.765,-1.9 5.835,-2.607 0.955,0.328 1.371,0.23 2.091,0.854 -0.303,0.324 -0.773,0.591 -1.227,0.763 -2.718,0.753 -9.145,2.093 -10.513,4.716 -0.269,-1.112 0.782,-2.038 1.955,-2.995 l -2.539,0.366 c -4.458,2.053 -3.892,5.51 -2.887,8.794 l 0.32,-2.749 0.865,-1.506 c 1.687,2.929 0.814,2.57 -2.505,6.561 l 2.517,-0.96 c 1.147,-0.912 3.031,-2.49 4.704,-3.588 4.504,-2.922 6.73,-4.854 12.467,-5.289 l 1.77,-0.396 c 1.276,3.194 -1.132,6.169 -0.431,1.686 -0.929,1.118 -1.839,2.152 -1.643,2.731 -0.326,0.486 1.373,1.684 1.232,2.235 -1.645,1.656 -8.808,2.593 -12.673,6.389 -0.119,-0.629 1.783,-2.275 2.111,-2.838 -3.861,-0.007 -6.129,1.164 -6.532,2.39 -0.084,0.202 0.029,1.105 0.442,1.394 0.559,0.279 1.105,0.706 1.746,0.758 -0.997,0.807 -2.274,-0.254 -3.167,-0.731 -0.696,-1.15 0.367,-2.444 0.497,-3.386 -0.94,0.239 -2.199,1.865 -2.348,2.881 -1.432,-0.143 -2.743,0.048 -3.837,0.862 0.971,0.201 1.976,0.546 2.993,0.718 2.664,0.546 5.476,3.19 8.147,1.087 l -1.238,1.56 c -2.506,0.277 -4.695,-0.842 -6.99,-1.39 l -1.637,-0.594 c -0.193,0.381 0.298,0.739 0.495,1.092 0.142,0.26 0.544,0.403 0.64,0.715 -2.109,0.347 -4.096,1.371 -6.351,1.042 -2.411,-0.355 -3.82,-1.24 -5.213,-2.3 -0.702,-0.369 -1.045,-0.897 -1.729,-1.338 -0.836,-0.725 -1.208,-2.175 -1.416,-2.452 1.209,0.501 2.421,0.415 3.243,0.678 -3.095,-1.853 -3.659,-5.517 -2.829,-8.582 l -0.051,-0.066 c -1.028,0.609 -1.321,1.725 -1.601,2.7 -0.209,-0.637 -0.244,-1.45 -0.387,-2.162 -0.328,0.303 -0.507,0.735 -0.69,1.121 -0.37,-3.236 1.231,-5.883 3.195,-8.452 1.317,-1.722 -1.285,-2.837 -0.69,-4.993" id="red" style="fill:#ff1a00;fill-opacity:1;fill-rule:nonzero;stroke:none"/><path d="m 633.20594,581.61093 c -0.668,0.914 -1.623,1.653 -2.843,1.558 0.005,-1.123 1.571,-1.791 2.843,-1.558" id="eye" style="fill:#ffffff;fill-opacity:1;fill-rule:nonzero;stroke:none"/><path d="m 616.72564,585.11583 c -0.72,-0.807 -1.44,-1.614 -1.616,-2.705 l 0.159,-0.183 c 0.481,0.554 1.201,1.018 1.861,1.339 -0.008,-1.152 0.745,-2.285 1.76,-2.848 l 0.17,-0.012 c -0.208,1.216 -0.053,2.701 0.442,3.794 0.781,0.631 1.804,0.877 2.465,1.541 -1.641,0.387 -3.207,0.082 -4.617,-0.431 l -0.624,-0.495 z" id="intern1" style="fill:#100f0d;fill-opacity:1;fill-rule:nonzero;stroke:none"/><path d="m 623.45504,581.53843 c -1.06,-0.071 -2.053,-0.246 -3.052,-0.494 0.438,-0.399 0.992,-0.536 1.407,-0.909 -1.309,-0.471 -2.678,-0.766 -3.827,-1.738 l 0.235,-0.14 c 2.114,0.413 4.612,0.358 6.81,-0.118 l 0.128,0.089 -1.26,2.273 1.966,0.399 c -1.035,0.957 -2.219,1.9 -3.587,2.316 0.206,-0.554 0.779,-1.11 1.18,-1.678" id="intern2" style="fill:#100f0d;fill-opacity:1;fill-rule:nonzero;stroke:none"/><path d="m 631.10494,579.21333 c 1.041,-0.197 2.191,-0.23 3.184,-0.055 -1.633,0.827 -3.728,0.682 -5.023,2.124 0.241,-0.753 0.767,-1.968 1.839,-2.069" id="intern3" style="fill:#100f0d;fill-opacity:1;fill-rule:nonzero;stroke:none"/><path d="m 615.48074,573.57253 c 0.4,-1.279 -0.986,-2.824 0.107,-4.005 0.928,-1.072 2.067,-1.962 3.163,-2.752 l -0.093,0.399 c -0.975,1.125 -1.868,2.365 -2.312,3.697 1.148,-0.401 2.36,-0.953 3.67,-1.145 -1.464,2.165 -4.16,4.245 -3.117,7.187 0.06,0.487 0.723,0.856 0.56,1.309 -1.554,-1.14 -2.213,-2.834 -1.978,-4.69" id="intern4" style="fill:#100f0d;fill-opacity:1;fill-rule:nonzero;stroke:none"/><path d="m 635.74764,571.75673 c -0.146,-0.247 -0.095,-0.611 -0.143,-0.917 0.321,0.158 0.551,0.501 0.869,0.633 -0.089,0.187 -0.501,0.19 -0.726,0.284" id="teeth1" style="fill:#ffffff;fill-opacity:1;fill-rule:nonzero;stroke:none"/><path d="m 637.60724,569.83753 0.662,0.623 c -0.146,0.113 -0.34,0.281 -0.602,0.222 l -0.06,-0.845 z" id="teeth2" style="fill:#ffffff;fill-opacity:1;fill-rule:nonzero;stroke:none"/><path d="m 639.15124,569.14803 c 0.154,-0.011 0.513,0.691 0.667,0.68 l -0.518,0.304 c -0.18,0.012 -0.089,-0.859 -0.149,-0.984" id="teeth3" style="fill:#ffffff;fill-opacity:1;fill-rule:nonzero;stroke:none"/><path d="m 640.74824,568.81893 -0.17,-0.4 c 0.362,0.026 0.553,0.708 0.773,0.898 -0.604,0.12 -0.625,0.283 -0.603,-0.498" id="teeth4" style="fill:#ffffff;fill-opacity:1;fill-rule:nonzero;stroke:none"/><path d="m 642.45764,567.88103 0.656,1.08 -0.601,0.139 -0.055,-1.219 z" id="teeth5" style="fill:#ffffff;fill-opacity:1;fill-rule:nonzero;stroke:none"/><path d="m 644.11494,568.05583 0.747,0.548 c -0.745,0.291 -0.787,0.399 -0.747,-0.548" id="teeth6" style="fill:#ffffff;fill-opacity:1;fill-rule:nonzero;stroke:none"/><path d="m 645.91004,568.48153 c 0.106,-0.317 0.002,-0.696 -0.022,-1.029 0.177,0.323 0.58,0.551 0.633,0.934 -0.17,0.141 -0.406,0.08 -0.611,0.095" id="teeth7" style="fill:#ffffff;fill-opacity:1;fill-rule:nonzero;stroke:none"/><path d="m 632.43474,582.12483 c -0.118,-0.453 -0.547,-0.734 -0.959,-0.627 -0.412,0.107 -0.65,0.561 -0.533,1.014 0.118,0.454 0.547,0.734 0.959,0.627 0.412,-0.107 0.651,-0.561 0.533,-1.014" id="pupil" style="fill:#100f0d;fill-opacity:1;fill-rule:nonzero;stroke:none"/><path d="m 623.51204,556.54603 c 0.233,-0.436 0.24,-0.966 0.474,-1.402 0.569,1.173 0.516,2.59 -0.203,3.656 -1.263,0.554 -2.48,1.126 -3.566,1.998 0.444,-1.51 1.914,-3.182 3.295,-4.252" id="stripe1" style="fill:#100f0d;fill-opacity:1;fill-rule:nonzero;stroke:none"/><path d="m 623.08104,552.44123 1.191,2.06 c -1.188,0.765 -3.55,1.871 -4.635,2.885 0.846,-1.746 1.98,-3.512 3.444,-4.945" id="stripe2" style="fill:#100f0d;fill-opacity:1;fill-rule:nonzero;stroke:none"/><path d="m 625.42774,552.46403 c -0.112,0.557 -0.253,1.107 -0.448,1.639 -3.849,-0.39 -7.68,0.2 -11.198,1.916 -2.713,1.323 -5.045,3.206 -6.94,5.568 -0.471,-0.25 -0.978,-0.522 -1.49,-0.803 2.096,-2.678 4.7,-4.826 7.689,-6.284 3.894,-1.899 8.139,-2.52 12.387,-2.036" id="collar" style="fill:#100f0d;fill-opacity:1;fill-rule:nonzero;stroke:none"/></g><g transform="matrix(4.3904, 0, 0, 4.3904, -2557.09, -2266.29)" id="Text"><g id="g7680"><path d="m 598.51094,536.74093 c 0,0.766 -0.064,1.268 -0.191,1.506 -0.127,0.238 -0.419,0.358 -0.875,0.358 -0.322,0 -0.686,-0.099 -1.092,-0.294 -0.406,-0.196 -0.795,-0.464 -1.168,-0.804 l 0,-9.395 -3.247,0 0,8.481 c 0,0.815 -0.077,1.354 -0.231,1.617 -0.155,0.263 -0.471,0.395 -0.951,0.395 -0.326,0 -0.69,-0.081 -1.093,-0.242 -0.403,-0.162 -0.792,-0.412 -1.169,-0.751 l 0,-9.499 -3.326,0 0,9.115 c 0,0.477 -0.009,0.89 -0.026,1.239 -0.017,0.349 -0.043,0.651 -0.077,0.906 -0.034,0.255 -0.081,0.481 -0.14,0.676 -0.06,0.196 -0.141,0.371 -0.243,0.524 l 3.09,0.842 c 0.119,-0.187 0.208,-0.37 0.268,-0.549 0.059,-0.179 0.123,-0.438 0.191,-0.779 0.902,0.886 1.965,1.328 3.191,1.328 1.072,0 1.957,-0.357 2.654,-1.072 0.086,-0.085 0.171,-0.179 0.256,-0.281 0.085,-0.102 0.17,-0.221 0.255,-0.358 0.596,0.613 1.183,1.052 1.762,1.316 0.578,0.263 1.225,0.396 1.94,0.396 0.51,0 0.995,-0.073 1.454,-0.217 0.46,-0.145 0.834,-0.346 1.124,-0.6 0.374,-0.29 0.63,-0.673 0.766,-1.149 0.136,-0.477 0.204,-1.158 0.204,-2.043 l 0,-9.295 -3.326,0 0,8.629 z" id="m" style="fill:#100f0d;fill-opacity:1;fill-rule:nonzero;stroke:none"/><path d="m 611.94224,538.19603 c -0.356,0.457 -0.849,0.685 -1.476,0.685 -0.408,0 -0.769,-0.118 -1.082,-0.355 -0.314,-0.237 -0.539,-0.558 -0.674,-0.964 -0.119,-0.339 -0.208,-0.744 -0.268,-1.218 -0.059,-0.474 -0.089,-1.033 -0.089,-1.675 0,-1.472 0.144,-2.564 0.433,-3.274 0.152,-0.356 0.394,-0.622 0.725,-0.8 0.331,-0.177 0.666,-0.266 1.006,-0.266 0.763,0 1.306,0.347 1.628,1.041 0.323,0.693 0.484,1.81 0.484,3.35 0,1.725 -0.229,2.884 -0.687,3.476 m 4.014,-6.375 c -0.264,-0.801 -0.675,-1.524 -1.236,-2.172 -0.493,-0.562 -1.079,-1.005 -1.759,-1.329 -0.679,-0.323 -1.528,-0.485 -2.548,-0.485 -0.883,0 -1.686,0.162 -2.408,0.485 -0.722,0.324 -1.338,0.78 -1.847,1.368 -0.51,0.587 -0.906,1.298 -1.186,2.134 -0.28,0.834 -0.42,1.763 -0.42,2.785 0,1.022 0.14,1.954 0.42,2.798 0.281,0.843 0.676,1.567 1.186,2.172 0.509,0.604 1.125,1.068 1.847,1.393 0.722,0.323 1.525,0.485 2.408,0.485 1.852,0 3.33,-0.656 4.435,-1.968 0.526,-0.614 0.908,-1.295 1.146,-2.044 0.238,-0.75 0.357,-1.661 0.357,-2.734 0,-1.125 -0.132,-2.088 -0.395,-2.888" id="o" style="fill:#100f0d;fill-opacity:1;fill-rule:nonzero;stroke:none"/><path d="m 617.88064,528.11213 0,2.107 6.159,8.504 -5.644,0 0,2.415 9.7,0 0,-2.33 -5.771,-8.281 6.009,0 -0.818,-2.415 -9.635,0 z" id="z" style="fill:#100f0d;fill-opacity:1;fill-rule:nonzero;stroke:none"/><path d="m 630.63434,540.95833 3.445,0.537 0,-13.383 -3.445,0 0,12.846 z m 3.23,2.337 c -0.407,-0.409 -0.908,-0.613 -1.501,-0.613 -0.577,0 -1.068,0.204 -1.475,0.613 -0.407,0.408 -0.61,0.91 -0.61,1.506 0,0.595 0.207,1.097 0.623,1.506 0.415,0.408 0.92,0.612 1.514,0.612 0.576,0 1.064,-0.204 1.462,-0.612 0.398,-0.409 0.598,-0.911 0.598,-1.506 0,-0.596 -0.204,-1.098 -0.611,-1.506" id="i" style="fill:#100f0d;fill-opacity:1;fill-rule:nonzero;stroke:none"/><path d="m 640.79874,527.79543 c -0.721,0 -1.349,0.162 -1.886,0.485 -0.537,0.323 -0.905,0.757 -1.106,1.302 -0.067,0.17 -0.117,0.332 -0.151,0.485 -0.033,0.153 -0.063,0.332 -0.088,0.536 -0.025,0.205 -0.042,0.46 -0.05,0.767 -0.009,0.306 -0.013,0.689 -0.013,1.149 l 0,9.754 c 0,0.869 -0.013,1.592 -0.038,2.171 -0.026,0.578 -0.072,1.166 -0.14,1.762 l 3.447,0.791 c 0.067,-0.357 0.113,-0.783 0.138,-1.276 0.025,-0.494 0.038,-1.2 0.038,-2.119 l 0,-10.189 c 0,-0.562 0.004,-1.013 0.012,-1.354 0.009,-0.34 0.018,-0.613 0.026,-0.817 0.009,-0.204 0.03,-0.357 0.064,-0.46 0.034,-0.101 0.077,-0.195 0.128,-0.28 0.136,-0.239 0.366,-0.358 0.689,-0.358 l 0.179,0 c 0.034,0 0.102,0.017 0.204,0.051 l 0.588,-2.042 c -0.631,-0.239 -1.311,-0.358 -2.041,-0.358" id="l" style="fill:#100f0d;fill-opacity:1;fill-rule:nonzero;stroke:none"/><path d="m 647.72084,527.79543 c -0.721,0 -1.349,0.162 -1.886,0.485 -0.537,0.323 -0.905,0.757 -1.106,1.302 -0.067,0.17 -0.117,0.332 -0.151,0.485 -0.033,0.153 -0.063,0.332 -0.088,0.536 -0.025,0.205 -0.042,0.46 -0.05,0.767 -0.009,0.306 -0.013,0.689 -0.013,1.149 l 0,9.754 c 0,0.869 -0.013,1.592 -0.038,2.171 -0.026,0.578 -0.072,1.166 -0.14,1.762 l 3.447,0.791 c 0.067,-0.357 0.113,-0.783 0.138,-1.276 0.025,-0.494 0.038,-1.2 0.038,-2.119 l 0,-10.189 c 0,-0.562 0.004,-1.013 0.012,-1.354 0.009,-0.34 0.018,-0.613 0.026,-0.817 0.009,-0.204 0.03,-0.357 0.064,-0.46 0.034,-0.101 0.077,-0.195 0.128,-0.28 0.136,-0.239 0.366,-0.358 0.689,-0.358 l 0.179,0 c 0.034,0 0.102,0.017 0.204,0.051 l 0.588,-2.042 c -0.631,-0.239 -1.311,-0.358 -2.041,-0.358" id="l2" style="fill:#100f0d;fill-opacity:1;fill-rule:nonzero;stroke:none"/><path d="m 654.96064,533.38053 c -0.475,-0.262 -0.712,-0.77 -0.712,-1.523 0,-0.492 0.142,-0.889 0.427,-1.192 0.285,-0.303 0.652,-0.455 1.102,-0.455 0.69,0 1.294,0.287 1.813,0.86 l 0.051,2.704 -0.155,0 c -1.209,0 -2.051,-0.132 -2.526,-0.394 m 4.297,-5.259 c -0.334,0.271 -0.587,0.577 -0.758,0.918 -0.138,-0.136 -0.271,-0.264 -0.399,-0.383 -0.129,-0.119 -0.261,-0.221 -0.399,-0.306 -0.652,-0.475 -1.535,-0.714 -2.649,-0.714 -1.492,0 -2.619,0.348 -3.382,1.044 -0.763,0.695 -1.144,1.705 -1.144,3.029 0,1.544 0.528,2.676 1.584,3.398 1.055,0.721 2.657,1.081 4.803,1.081 l 0.39,0 c 0.173,0 0.303,-0.008 0.389,-0.025 l 0,0.537 c 0,0.733 -0.098,1.24 -0.294,1.522 -0.195,0.28 -0.608,0.421 -1.238,0.421 -0.545,0 -1.132,-0.128 -1.762,-0.383 -0.63,-0.256 -1.302,-0.622 -2.017,-1.098 l -1.456,2.453 c 0.34,0.221 0.663,0.408 0.97,0.561 0.307,0.154 0.69,0.324 1.15,0.512 0.647,0.272 1.256,0.468 1.826,0.588 0.57,0.118 1.153,0.178 1.749,0.178 1.118,0 2.03,-0.195 2.735,-0.586 0.706,-0.391 1.185,-0.952 1.436,-1.683 0.084,-0.187 0.143,-0.386 0.176,-0.599 0.034,-0.212 0.051,-0.497 0.051,-0.854 l 0,-0.892 -0.076,-4.385 c 0,-0.358 0.008,-0.668 0.025,-0.931 0.017,-0.264 0.068,-0.506 0.153,-0.727 0.086,-0.221 0.209,-0.429 0.371,-0.624 0.161,-0.196 0.387,-0.404 0.677,-0.625 l -1.818,-2.091 c -0.394,0.171 -0.759,0.392 -1.093,0.664" id="a" style="fill:#100f0d;fill-opacity:1;fill-rule:nonzero;stroke:none"/></g><g id="Foundation"><path d="m 586.64824,523.16203 0,-1.188 1.604,0 0,-1.188 -1.604,0 0,-2.652 -1.544,0 0,6.216 3.741,0 -0.182,-1.188 -2.015,0 z" id="f" style="fill:#100f0d;fill-opacity:1;fill-rule:nonzero;stroke:none"/><path d="m 595.71494,522.17733 c -0.038,0.252 -0.105,0.467 -0.203,0.643 -0.098,0.176 -0.226,0.31 -0.383,0.402 -0.158,0.091 -0.357,0.138 -0.598,0.138 -0.458,0 -0.785,-0.186 -0.981,-0.557 -0.195,-0.371 -0.293,-0.917 -0.293,-1.636 0,-0.398 0.026,-0.727 0.079,-0.988 0.053,-0.26 0.132,-0.469 0.237,-0.625 0.105,-0.157 0.237,-0.268 0.394,-0.334 0.158,-0.065 0.346,-0.097 0.564,-0.097 0.203,0 0.382,0.036 0.536,0.109 0.154,0.073 0.283,0.193 0.389,0.362 0.105,0.168 0.184,0.394 0.236,0.677 0.053,0.283 0.079,0.632 0.079,1.045 0,0.321 -0.019,0.608 -0.056,0.861 m 1.63,-2.203 c -0.125,-0.403 -0.309,-0.747 -0.551,-1.032 -0.242,-0.285 -0.55,-0.508 -0.921,-0.668 -0.371,-0.16 -0.8,-0.24 -1.285,-0.24 -0.493,0 -0.932,0.078 -1.319,0.234 -0.387,0.156 -0.71,0.375 -0.972,0.657 -0.262,0.281 -0.461,0.616 -0.597,1.004 -0.137,0.388 -0.205,0.814 -0.205,1.278 0,0.51 0.07,0.966 0.211,1.37 0.14,0.403 0.34,0.743 0.602,1.021 0.262,0.278 0.58,0.489 0.955,0.634 0.376,0.144 0.798,0.216 1.268,0.216 0.44,0 0.844,-0.064 1.211,-0.193 0.368,-0.13 0.684,-0.326 0.95,-0.588 0.265,-0.263 0.471,-0.59 0.619,-0.982 0.148,-0.392 0.222,-0.85 0.222,-1.375 0,-0.487 -0.063,-0.932 -0.188,-1.336" id="o2" style="fill:#100f0d;fill-opacity:1;fill-rule:nonzero;stroke:none"/><path d="m 606.09644,519.63813 c -0.023,-0.159 -0.055,-0.299 -0.097,-0.42 -0.041,-0.121 -0.095,-0.225 -0.159,-0.312 -0.065,-0.087 -0.143,-0.172 -0.234,-0.255 -0.175,-0.167 -0.418,-0.315 -0.729,-0.443 -0.312,-0.129 -0.718,-0.193 -1.219,-0.193 -0.525,0 -0.979,0.064 -1.362,0.193 -0.384,0.128 -0.678,0.325 -0.884,0.59 -0.136,0.174 -0.226,0.365 -0.267,0.574 -0.042,0.207 -0.063,0.455 -0.063,0.743 l 0,4.235 1.604,0 0,-4.037 c 0,-0.188 0.007,-0.335 0.022,-0.441 0.015,-0.105 0.051,-0.195 0.11,-0.271 0.162,-0.226 0.423,-0.339 0.783,-0.339 0.154,0 0.29,0.024 0.408,0.073 0.117,0.049 0.216,0.108 0.297,0.175 0.03,0.031 0.057,0.065 0.083,0.102 0.025,0.038 0.049,0.091 0.071,0.159 0.022,0.068 0.039,0.154 0.05,0.26 0.011,0.105 0.016,0.241 0.016,0.407 l 0,3.912 1.604,0 0,-4.133 c 0,-0.227 -0.011,-0.42 -0.034,-0.579" id="u" style="fill:#100f0d;fill-opacity:1;fill-rule:nonzero;stroke:none"/><path d="m 612.07344,520.68803 c -0.069,0.144 -0.143,0.314 -0.223,0.507 -0.08,0.194 -0.156,0.38 -0.229,0.559 -0.072,0.179 -0.135,0.329 -0.188,0.45 l -0.068,0.194 0.011,-0.239 c 0.008,-0.152 0.015,-0.334 0.023,-0.547 l 0.023,-0.628 c 0.007,-0.205 0.011,-0.36 0.011,-0.467 l 0.035,-2.383 -1.46,0 0,6.216 1.697,0 1.207,-2.406 c 0.068,-0.137 0.138,-0.295 0.21,-0.473 0.072,-0.179 0.137,-0.348 0.194,-0.508 0.057,-0.159 0.104,-0.296 0.143,-0.41 l 0.057,-0.171 -0.023,0.194 c -0.008,0.136 -0.017,0.296 -0.029,0.479 -0.012,0.182 -0.023,0.367 -0.034,0.553 -0.012,0.186 -0.017,0.336 -0.017,0.45 l -0.023,2.292 1.448,0 0,-6.216 -1.6,0 -1.165,2.554 z" id="n" style="fill:#100f0d;fill-opacity:1;fill-rule:nonzero;stroke:none"/><path d="m 622.04044,521.96113 c -0.037,0.266 -0.101,0.49 -0.191,0.672 -0.09,0.181 -0.213,0.322 -0.37,0.421 -0.157,0.098 -0.352,0.147 -0.584,0.147 l -0.561,0 0,-3.88 0.741,0 c 0.135,0 0.264,0.026 0.387,0.08 0.123,0.053 0.232,0.146 0.325,0.279 0.094,0.133 0.169,0.311 0.225,0.535 0.056,0.223 0.084,0.502 0.084,0.836 0,0.341 -0.018,0.645 -0.056,0.91 m 1.577,-1.973 c -0.121,-0.352 -0.289,-0.656 -0.504,-0.913 -0.216,-0.257 -0.471,-0.462 -0.766,-0.613 -0.294,-0.151 -0.616,-0.249 -0.963,-0.294 -0.129,-0.016 -0.276,-0.025 -0.443,-0.029 -0.166,-0.004 -0.37,-0.006 -0.612,-0.006 l -1.598,0 0,6.217 1.689,0 c 0.174,0 0.348,-0.003 0.521,-0.006 0.174,-0.004 0.314,-0.014 0.42,-0.028 0.771,-0.091 1.37,-0.396 1.797,-0.913 0.427,-0.519 0.641,-1.254 0.641,-2.207 0,-0.454 -0.061,-0.856 -0.182,-1.208" id="d" style="fill:#100f0d;fill-opacity:1;fill-rule:nonzero;stroke:none"/><path d="m 628.57784,520.60813 1.197,0 -0.581,2.429 -0.616,-2.429 z m 1.522,-1.148 -1.857,0 -0.445,-1.327 -1.642,0 2.269,6.276 1.663,0 2.122,-6.276 -1.631,0 -0.479,1.327 z" id="a2" style="fill:#100f0d;fill-opacity:1;fill-rule:nonzero;stroke:none"/><path d="m 637.05374,523.10263 0,-4.969 -1.604,0 0,4.969 -1.603,0 0,1.247 5.068,0 -0.297,-1.247 -1.564,0 z" id="t" style="fill:#100f0d;fill-opacity:1;fill-rule:nonzero;stroke:none"/><path d="m 641.66264,524.34943 1.604,0 0,-6.216 -1.604,0 0,6.216 z" id="i2" style="fill:#100f0d;fill-opacity:1;fill-rule:nonzero;stroke:none"/><path d="m 651.05354,522.17733 c -0.038,0.252 -0.105,0.467 -0.203,0.643 -0.098,0.176 -0.226,0.31 -0.383,0.402 -0.158,0.091 -0.357,0.138 -0.598,0.138 -0.458,0 -0.785,-0.186 -0.981,-0.557 -0.195,-0.371 -0.293,-0.917 -0.293,-1.636 0,-0.398 0.026,-0.727 0.079,-0.988 0.053,-0.26 0.131,-0.469 0.237,-0.625 0.105,-0.157 0.237,-0.268 0.394,-0.334 0.158,-0.065 0.346,-0.097 0.564,-0.097 0.203,0 0.382,0.036 0.536,0.109 0.154,0.073 0.283,0.193 0.389,0.362 0.105,0.168 0.184,0.394 0.236,0.677 0.053,0.283 0.079,0.632 0.079,1.045 0,0.321 -0.019,0.608 -0.056,0.861 m 1.63,-2.203 c -0.125,-0.403 -0.309,-0.747 -0.551,-1.032 -0.243,-0.285 -0.55,-0.508 -0.921,-0.668 -0.371,-0.16 -0.8,-0.24 -1.285,-0.24 -0.493,0 -0.932,0.078 -1.319,0.234 -0.387,0.156 -0.71,0.375 -0.972,0.657 -0.262,0.281 -0.461,0.616 -0.597,1.004 -0.137,0.388 -0.205,0.814 -0.205,1.278 0,0.51 0.07,0.966 0.211,1.37 0.14,0.403 0.34,0.743 0.602,1.021 0.262,0.278 0.58,0.489 0.955,0.634 0.376,0.144 0.798,0.216 1.268,0.216 0.44,0 0.843,-0.064 1.211,-0.193 0.368,-0.13 0.684,-0.326 0.95,-0.588 0.265,-0.263 0.471,-0.59 0.619,-0.982 0.148,-0.392 0.222,-0.85 0.222,-1.375 0,-0.487 -0.063,-0.932 -0.188,-1.336" id="o3" style="fill:#100f0d;fill-opacity:1;fill-rule:nonzero;stroke:none"/><path d="m 658.39224,520.68803 c -0.069,0.144 -0.143,0.314 -0.223,0.507 -0.08,0.194 -0.156,0.38 -0.228,0.559 -0.073,0.179 -0.136,0.329 -0.189,0.45 l -0.068,0.194 0.011,-0.239 c 0.008,-0.152 0.015,-0.334 0.023,-0.547 l 0.023,-0.628 c 0.007,-0.205 0.011,-0.36 0.011,-0.467 l 0.035,-2.383 -1.46,0 0,6.216 1.697,0 1.207,-2.406 c 0.068,-0.137 0.138,-0.295 0.21,-0.473 0.072,-0.179 0.137,-0.348 0.194,-0.508 0.057,-0.159 0.104,-0.296 0.143,-0.41 l 0.057,-0.171 -0.023,0.194 c -0.008,0.136 -0.017,0.296 -0.029,0.479 -0.012,0.182 -0.023,0.367 -0.034,0.553 -0.012,0.186 -0.017,0.336 -0.017,0.45 l -0.023,2.292 1.448,0 0,-6.216 -1.6,0 -1.165,2.554 z" id="n2" style="fill:#100f0d;fill-opacity:1;fill-rule:nonzero;stroke:none"/></g></g></g></svg>